# xmcd
# 
# Track frame offsets:
#     150
#     18534
#     33755
#     47550
#     59321
#     77755
#     99742
#     115089
#     130354
#     140610
# 
# Disc length: 2087
# 
# Revision: 2
# Processed by: cddbd v1.5.2PL0 Copyright (c) Steve Scherf et al.
# Submitted via: BonkEnc v1.0.15
# 
DISCID=8208250a
DTITLE=OLIVER DRAGOJEVIĆ - Ljubavna pjesma
DYEAR=1975
DGENRE=Zabavni
TTITLE0=Ljubavna pjesma
TTITLE1=Picaferaj
TTITLE2=Djeca jednog vijeka
TTITLE3=Bila je jesen
TTITLE4=Sto učinila si zi
TTITLE5=Ne žuri djevojčice
TTITLE6=Ksantipa
TTITLE7=Meni trebaš ti
TTITLE8=Prisjećam se noćas
TTITLE9=Znam da me voliš
EXTD=
EXTT0=
EXTT1=
EXTT2=
EXTT3=
EXTT4=
EXTT5=
EXTT6=
EXTT7=
EXTT8=
EXTT9=
PLAYORDER=
